<svg xmlns="http://www.w3.org/2000/svg" fill="none" viewBox="0 0 250 250" height="250" width="250">
<path fill="url(#paint0_linear_2250_8966)" d="M125 205C169.183 205 205 169.183 205 125C205 80.8172 169.183 45 125 45C80.8172 45 45 80.8172 45 125C45 169.183 80.8172 205 125 205Z"></path>
<path fill="url(#paint1_linear_2250_8966)" d="M152.79 122.697L135.105 99.2529V132.095L152.79 155.539V122.697V122.697Z"></path>
<path fill="white" d="M173 94.1997H152.79V155.539H173V94.1997ZM114.895 99.2525H135.105V155.539H114.895V99.2525ZM77 104.305H97.2104V155.539H77V104.305Z"></path>
<defs>
<linearGradient gradientUnits="userSpaceOnUse" y2="-62.2764" x2="195.042" y1="193.385" x1="-62.8876" id="paint0_linear_2250_8966">
<stop stop-color="#DDFF33"></stop>
<stop stop-color="#31F2CC" offset="0.5"></stop>
<stop stop-color="#34BBFF" offset="1"></stop>
</linearGradient>
<linearGradient gradientUnits="userSpaceOnUse" y2="99.2529" x2="152.79" y1="99.2529" x1="135.105" id="paint1_linear_2250_8966">
<stop stop-opacity="0.6" stop-color="white"></stop>
<stop stop-opacity="0.75" stop-color="white" offset="0.25"></stop>
<stop stop-opacity="0.82" stop-color="white" offset="0.5"></stop>
<stop stop-opacity="0.75" stop-color="white" offset="0.75"></stop>
<stop stop-opacity="0.6" stop-color="white" offset="1"></stop>
</linearGradient>
</defs>
</svg>
